<svg xmlns="http://www.w3.org/2000/svg" xmlns:xlink="http://www.w3.org/1999/xlink" viewBox="0 0 258.3 154.9"><path fill="#231F20" d="M73.3 134.1s8.6 19.1 12 20.5c3.4 1.4 11.4-3.8 11.4-3.8l-9.1-16.2-14.3-.5zM74 20.6S82.8 1.6 86.3.2c3.4-1.4 11.3 4 11.3 4l-9.3 16-14.3.4z"/><path fill="#808083" d="M5.1 106.5c-7-17.6-6.8-41.6.4-59.1s15.4-30 43.7-29c28.3 1 143.5 2.2 173.1 2.5C252 21.2 259 54 259 54l-.3 49s-7.4 32.8-37 32.7c-29.6-.1-144.9-.3-173.2.3-28.3.7-36.4-12-43.4-29.5z"/><path fill="#231F20" d="M114.7 124.1L186 123l28.7 10.4-134.9-.3M112.3 120.8c-1-5.8-1.9-26.1-2.7-43.2-.9-17.1 2.3-37.4 3.3-43.2 0 0-29.2-7.5-38-9.7-10.3 23.4-12.6 37.9-12.4 53.7.2 15.8 1.7 27.9 11.7 51.7 8.7-2.2 38.1-9.3 38.1-9.3zM187.7 120.1c3-10.8 5.8-24.6 6.7-42.1.9-17.4-5.2-38.3-6.2-42 8.7-2.3 8.7-2.4 29-9.9 0 0 5.8 30.9 6 52.2.1 21.3-6.6 52-6.6 52-20.2-7.7-20.2-7.8-28.9-10.2z"/><defs><path id="a" d="M5.1 106.5c7 17.6 15.1 30.2 43.4 29.6 28.3-.6 143.5-.4 173.2-.3 29.6.1 37-32.7 37-32.7l-.4-24.6L0 76.9s-1.9 12 5.1 29.6z"/></defs><clipPath id="b"><use xlink:href="#a" overflow="visible"/></clipPath><path clip-path="url(#b)" fill="#FDBB16" d="M2.6 110.1l.3.2s28 12.4 46.1 28.4c-2.8 4.7-22.1.2-31.7-5.1-9.7-5.3-14.7-23.5-14.7-23.5z"/><g><path fill="#231F20" d="M115.3 31.1l71.3 2.1 28.8-10.1-134.9-1.4"/><defs><path id="c" d="M5.5 47.4c7.2-17.5 15.4-30 43.7-29 28.3 1 143.5 2.2 173.1 2.5C252 21.2 259 54 259 54l-.7 24.6L0 76.9s-1.7-12.1 5.5-29.5z"/></defs><clipPath id="d"><use xlink:href="#c" overflow="visible"/></clipPath><path clip-path="url(#d)" fill="#FDBB16" d="M3 43.8l.3-.2s28.2-12 46.5-27.9C47 11 27.7 15.2 18 20.4S3 43.8 3 43.8z"/></g></svg>